HIERARCHY
ROOT Hips
{
  OFFSET 5.80788e-005 67.184 3.4734
  CHANNELS 6 Xposition Yposition Zposition Zrotation Xrotation Yrotation
  JOINT Chest
  {
    OFFSET 0 8.7983 -4.7612
    CHANNELS 3 Zrotation Xrotation Yrotation
    JOINT Chest2
    {
      OFFSET 0 8.0291 0.4195
      CHANNELS 3 Zrotation Xrotation Yrotation
      JOINT Chest3
      {
        OFFSET 0 9.9351 -2.2114
        CHANNELS 3 Zrotation Xrotation Yrotation
        JOINT Neck
        {
          OFFSET 0 22.3885 -0.4656
          CHANNELS 3 Zrotation Xrotation Yrotation
          JOINT Head
          {
            OFFSET -0.0001 12.643 3.4389
            CHANNELS 3 Zrotation Xrotation Yrotation
            End Site
            {
              OFFSET 0.0001 17.6655 0.5274
            }
          }
        }
        JOINT LeftCollar
        {
          OFFSET 2.2603 21.606 7.4023
          CHANNELS 3 Zrotation Xrotation Yrotation
          JOINT LeftShoulder
          {
            OFFSET 13.5163 -1.1332 -5.0146
            CHANNELS 3 Zrotation Xrotation Yrotation
            JOINT LeftElbow
            {
              OFFSET -0.0995 -28.05 -0.2431
              CHANNELS 3 Zrotation Xrotation Yrotation
              JOINT LeftWrist
              {
                OFFSET 0.0679 -23.3996 -0.1402
                CHANNELS 3 Zrotation Xrotation Yrotation
                JOINT LeftFinger1
                {
                  OFFSET 0.7932 -9.069 2.5189
                  CHANNELS 3 Zrotation Xrotation Yrotation
                  JOINT LeftFinger11
                  {
                    OFFSET -0.8272 -3.3923 0.5977
                    CHANNELS 3 Zrotation Xrotation Yrotation
                    JOINT LeftFinger12
                    {
                      OFFSET -0.5649 -2.3158 0.4082
                      CHANNELS 3 Zrotation Xrotation Yrotation
                      End Site
                      {
                        OFFSET -0.4919 -1.6479 0.2673
                      }
                    }
                  }
                }
                JOINT LeftFinger2
                {
                  OFFSET 0.9159 -9.2044 0.2193
                  CHANNELS 3 Zrotation Xrotation Yrotation
                  JOINT LeftFinger21
                  {
                    OFFSET 0.0117 -4.1944 -0.0248
                    CHANNELS 3 Zrotation Xrotation Yrotation
                    JOINT LeftFinger22
                    {
                      OFFSET 0.0071 -2.3249 -0.0142
                      CHANNELS 3 Zrotation Xrotation Yrotation
                      End Site
                      {
                        OFFSET -0.1475 -2.0882 0.0028
                      }
                    }
                  }
                }
                JOINT LeftFinger3
                {
                  OFFSET 0.6113 -8.7231 -2.0637
                  CHANNELS 3 Zrotation Xrotation Yrotation
                  JOINT LeftFinger31
                  {
                    OFFSET -0.1927 -3.8059 -0.2383
                    CHANNELS 3 Zrotation Xrotation Yrotation
                    JOINT LeftFinger32
                    {
                      OFFSET -0.1091 -2.1688 -0.1362
                      CHANNELS 3 Zrotation Xrotation Yrotation
                      End Site
                      {
                        OFFSET -0.2358 -1.9176 -0.0906
                      }
                    }
                  }
                }
                JOINT LeftFinger4
                {
                  OFFSET -0.6151 -8.0947 -3.5641
                  CHANNELS 3 Zrotation Xrotation Yrotation
                  JOINT LeftFinger41
                  {
                    OFFSET -0.4882 -2.341 -0.6462
                    CHANNELS 3 Zrotation Xrotation Yrotation
                    JOINT LeftFinger42
                    {
                      OFFSET -0.3575 -1.7167 -0.4742
                      CHANNELS 3 Zrotation Xrotation Yrotation
                      End Site
                      {
                        OFFSET -0.4187 -1.5237 -0.3496
                      }
                    }
                  }
                }
                JOINT LeftFinger0
                {
                  OFFSET -1.42 -1.8761 1.4223
                  CHANNELS 3 Zrotation Xrotation Yrotation
                  JOINT LeftFinger01
                  {
                    OFFSET -1.1471 -3.4929 2.6334
                    CHANNELS 3 Zrotation Xrotation Yrotation
                    JOINT LeftFinger02
                    {
                      OFFSET -0.823 -2.3 1.6571
                      CHANNELS 3 Zrotation Xrotation Yrotation
                      End Site
                      {
                        OFFSET -0.5822 -1.6914 1.1582
                      }
                    }
                  }
                }
              }
            }
          }
        }
        JOINT RightCollar
        {
          OFFSET -2.2603 21.606 7.4023
          CHANNELS 3 Zrotation Xrotation Yrotation
          JOINT RightShoulder
          {
            OFFSET -13.5187 -1.1334 -5.0155
            CHANNELS 3 Zrotation Xrotation Yrotation
            JOINT RightElbow
            {
              OFFSET 0.0994 -28.0499 -0.2431
              CHANNELS 3 Zrotation Xrotation Yrotation
              JOINT RightWrist
              {
                OFFSET -0.0679 -23.3996 -0.1402
                CHANNELS 3 Zrotation Xrotation Yrotation
                JOINT RightFinger1
                {
                  OFFSET -0.7932 -9.0691 2.5189
                  CHANNELS 3 Zrotation Xrotation Yrotation
                  JOINT RightFinger11
                  {
                    OFFSET 0.8272 -3.3923 0.5977
                    CHANNELS 3 Zrotation Xrotation Yrotation
                    JOINT RightFinger12
                    {
                      OFFSET 0.565 -2.3158 0.4082
                      CHANNELS 3 Zrotation Xrotation Yrotation
                      End Site
                      {
                        OFFSET 0.4919 -1.6479 0.2673
                      }
                    }
                  }
                }
                JOINT RightFinger2
                {
                  OFFSET -0.916 -9.2044 0.2193
                  CHANNELS 3 Zrotation Xrotation Yrotation
                  JOINT RightFinger21
                  {
                    OFFSET -0.0117 -4.1944 -0.0248
                    CHANNELS 3 Zrotation Xrotation Yrotation
                    JOINT RightFinger22
                    {
                      OFFSET -0.0071 -2.3249 -0.0142
                      CHANNELS 3 Zrotation Xrotation Yrotation
                      End Site
                      {
                        OFFSET 0.1475 -2.0882 0.0028
                      }
                    }
                  }
                }
                JOINT RightFinger3
                {
                  OFFSET -0.6113 -8.7231 -2.0637
                  CHANNELS 3 Zrotation Xrotation Yrotation
                  JOINT RightFinger31
                  {
                    OFFSET 0.1927 -3.8059 -0.2383
                    CHANNELS 3 Zrotation Xrotation Yrotation
                    JOINT RightFinger32
                    {
                      OFFSET 0.1091 -2.1688 -0.1362
                      CHANNELS 3 Zrotation Xrotation Yrotation
                      End Site
                      {
                        OFFSET 0.2358 -1.9176 -0.0906
                      }
                    }
                  }
                }
                JOINT RightFinger4
                {
                  OFFSET 0.6151 -8.0947 -3.564
                  CHANNELS 3 Zrotation Xrotation Yrotation
                  JOINT RightFinger41
                  {
                    OFFSET 0.4882 -2.341 -0.6462
                    CHANNELS 3 Zrotation Xrotation Yrotation
                    JOINT RightFinger42
                    {
                      OFFSET 0.3574 -1.7166 -0.4742
                      CHANNELS 3 Zrotation Xrotation Yrotation
                      End Site
                      {
                        OFFSET 0.4187 -1.5237 -0.3496
                      }
                    }
                  }
                }
                JOINT RightFinger0
                {
                  OFFSET 1.4199 -1.8761 1.4221
                  CHANNELS 3 Zrotation Xrotation Yrotation
                  JOINT RightFinger01
                  {
                    OFFSET 1.1472 -3.4929 2.6336
                    CHANNELS 3 Zrotation Xrotation Yrotation
                    JOINT RightFinger02
                    {
                      OFFSET 0.8229 -2.3 1.6571
                      CHANNELS 3 Zrotation Xrotation Yrotation
                      End Site
                      {
                        OFFSET 0.5822 -1.6914 1.1582
                      }
                    }
                  }
                }
              }
            }
          }
        }
      }
    }
  }
  JOINT RightHip
  {
    OFFSET -9.412 3.9771 -0.7758
    CHANNELS 3 Zrotation Xrotation Yrotation
    JOINT RightKnee
    {
      OFFSET -0.7531 -40.938 0
      CHANNELS 3 Zrotation Xrotation Yrotation
      JOINT RightAnkle
      {
        OFFSET 0 -40.1986 0
        CHANNELS 3 Zrotation Xrotation Yrotation
        JOINT RightToe
        {
          OFFSET 0 -4.4182 9.239
          CHANNELS 3 Zrotation Xrotation Yrotation
          End Site
          {
            OFFSET 0 0 6.1981
          }
        }
      }
    }
  }
  JOINT LeftHip
  {
    OFFSET 9.4119 3.9773 -0.7758
    CHANNELS 3 Zrotation Xrotation Yrotation
    JOINT LeftKnee
    {
      OFFSET 0.7532 -40.9383 0
      CHANNELS 3 Zrotation Xrotation Yrotation
      JOINT LeftAnkle
      {
        OFFSET 0 -40.1986 0
        CHANNELS 3 Zrotation Xrotation Yrotation
        JOINT LeftToe
        {
          OFFSET 0 -4.4182 9.239
          CHANNELS 3 Zrotation Xrotation Yrotation
          End Site
          {
            OFFSET 0 0 6.1981
          }
        }
      }
    }
  }
}
MOTION
Frames:	6
Frame Time:	0.0333333
5.80788e-005 67.184 3.4734 0 0 -0 0 0 -0 0 0 -0 0 0 -0 0 0 -0 -0 0 0.00880797 0 0 -12.5014 88.1196 14.2451 10.6914 -0.00160068 -0.00239207 0.000740045 -8.4365e-005 7.00714e-005 -9.52055e-007 9.93923e-017 -1.98785e-016 -1.59028e-015 9.93923e-017 -5.96354e-016 -1.59028e-015 -9.93923e-017 -5.96354e-016 -1.59028e-015 9.93923e-017 -1.98785e-016 -1.59028e-015 -0.0128176 0.00232552 8.52707e-005 9.93923e-017 5.96354e-016 -0 9.93923e-017 -1.98785e-016 -1.59028e-015 -0.0160551 0.00299681 0.000857156 -2.48481e-016 0 3.18055e-015 9.93923e-017 -1.98785e-016 -1.59028e-015 -0.0125865 0.0031206 0.00282719 0 1.98785e-016 -0 9.93923e-017 -1.98785e-016 -1.59028e-015 9.93923e-017 -5.96354e-016 -1.59028e-015 -9.93923e-017 -5.96354e-016 -1.59028e-015 -0.865644 0.16582 7.03859 -88.0329 10.2057 -10.5567 0.0015593 -0.00248883 -0.000788628 7.87605e-005 4.10553e-005 1.24965e-005 -3.97569e-016 -7.95139e-016 3.18055e-015 -1.98785e-016 -3.97569e-016 3.18055e-015 -1.98785e-016 0 3.18055e-015 -3.97569e-016 -7.95139e-016 3.18055e-015 0.0129473 0.00231697 -8.70038e-005 9.93923e-017 -7.95139e-016 1.59028e-015 -3.97569e-016 -7.95139e-016 3.18055e-015 0.0163314 0.00303369 -0.000872333 3.97569e-016 7.95139e-016 -3.18055e-015 -3.97569e-016 -7.95139e-016 3.18055e-015 0.0145763 0.00367772 -0.00326275 9.93923e-017 -3.97569e-016 -0 -3.97569e-016 -7.95139e-016 3.18055e-015 -1.98785e-016 -3.97569e-016 3.18055e-015 -1.98785e-016 0 3.18055e-015 3.42485 1.36937 -0.0640303 0.000136572 0.69354 0.00145564 -3.42573 -2.06297 -0.0607933 -3.19502e-024 0 -1.48106e-024 -3.42498 1.36123 0.0639712 -6.769e-005 0.712612 -0.0012277 3.42582 -2.07388 0.0612819 2.55305e-023 0 -2.31416e-026 
0.0201851 69.0711 -5.75073 -5.26763e-015 13.997 180 -0.447497 17.6475 -0.54341 -0.768121 35.2983 -1.01165 -0.768118 35.298 -1.01164 7.96821e-005 -24.3049 6.5017e-005 0.320065 -0.568276 0.00880748 -27.5278 -24.3527 -5.31314 37.6099 -10.6067 -3.81083 -105.074 -50.3771 -80.2742 17.3541 -9.72304 -8.69665 3.00994e-006 7.20959e-007 -3.18638e-006 -1.59028e-015 9.54166e-015 7.95139e-015 -3.00994e-006 -7.20959e-007 3.18638e-006 3.00994e-006 7.20959e-007 -3.18638e-006 -0.0128058 0.0023138 7.98344e-005 -3.18055e-015 3.18055e-015 -3.18055e-015 3.00994e-006 7.20959e-007 -3.18638e-006 -0.0160315 0.00298466 0.000857521 4.77083e-015 1.59028e-014 4.77083e-015 3.00994e-006 7.20959e-007 -3.18638e-006 -0.0125938 0.0031135 0.00283631 -7.95139e-015 1.27222e-014 -4.77083e-015 3.00994e-006 7.20959e-007 -3.18638e-006 -1.59028e-015 9.54166e-015 7.95139e-015 -3.00994e-006 -7.20959e-007 3.18638e-006 -1.97766 -19.4875 18.3891 -76.1461 -51.2747 -41.2356 8.40002 -4.86859 -13.4582 40.0341 -8.72543 9.64253 -1.59028e-015 1.59028e-015 -0 -1.59028e-015 1.59028e-015 -0 7.19276e-007 5.81646e-008 -4.22693e-007 -1.59028e-015 1.59028e-015 -0 0.0129581 0.00231743 -8.25888e-005 -1.59028e-015 -7.95139e-015 6.36111e-015 -1.59028e-015 1.59028e-015 -0 0.0163058 0.00303116 -0.000876093 2.53085e-006 6.21019e-007 4.07918e-006 -1.59028e-015 1.59028e-015 -0 0.0145737 0.00367968 -0.00326661 2.53079e-006 1.18282e-006 4.07918e-006 -1.59028e-015 1.59028e-015 -0 -1.59028e-015 1.59028e-015 -0 7.19276e-007 5.81646e-008 -4.22693e-007 -77.9176 -47.2883 -90.5072 -164.548 72.4554 164.252 -0.300554 -19.3403 0.0700029 1.59028e-015 3.18055e-015 -1.27222e-014 76.4862 -52.6793 90.601 163.053 76.1114 -162.977 2.43651 -16.1317 5.81517 -8.26002e-007 6.87391e-007 7.15208e-008 
0.00896212 68.6208 -5.86312 -0.0694975 14.8072 -179.951 -0.442846 17.2069 -0.550302 -0.758277 34.4171 -1.0287 -0.758274 34.4169 -1.02869 7.73714e-005 -24.9152 6.48902e-005 0.320126 -0.901536 0.00880931 -27.6157 -23.8173 -5.06543 37.6099 -10.6067 -3.81083 -102.733 -50.451 -78.5236 17.9124 -9.48493 -7.53007 -3.18055e-015 -3.18055e-015 -1.59028e-015 1.59028e-015 -9.54166e-015 -6.36111e-015 6.36111e-015 -6.36111e-015 -0 -3.18055e-015 -3.18055e-015 -1.59028e-015 -0.0127965 0.00233203 8.30485e-005 -7.28764e-006 -6.34251e-006 4.10549e-006 -3.18055e-015 -3.18055e-015 -1.59028e-015 -0.0160376 0.00300356 0.000852292 -1.59028e-015 0 -3.18055e-015 -3.18055e-015 -3.18055e-015 -1.59028e-015 -0.0125929 0.00313576 0.00282643 -3.18055e-015 0 -3.18055e-015 -3.18055e-015 -3.18055e-015 -1.59028e-015 1.59028e-015 -9.54166e-015 -6.36111e-015 6.36111e-015 -6.36111e-015 -0 -1.722 -18.6774 18.1 -75.9691 -51.5076 -41.0782 8.40067 -4.8712 -13.4579 40.158 -8.05206 9.6766 1.59028e-015 6.36111e-015 9.54166e-015 1.59028e-015 -3.18055e-015 1.27222e-014 7.13292e-007 1.95314e-006 -4.39071e-007 1.59028e-015 6.36111e-015 9.54166e-015 0.0129416 0.00231787 -8.04023e-005 7.13273e-007 1.79176e-006 -4.39042e-007 1.59028e-015 6.36111e-015 9.54166e-015 0.016349 0.00304289 -0.000870615 7.13268e-007 1.79179e-006 -4.39031e-007 1.59028e-015 6.36111e-015 9.54166e-015 0.0146154 0.00369043 -0.00327254 4.77083e-015 0 3.18055e-015 1.59028e-015 6.36111e-015 9.54166e-015 1.59028e-015 -3.18055e-015 1.27222e-014 7.13292e-007 1.95314e-006 -4.39071e-007 -79.9849 -47.7729 -92.5517 -164.965 71.8361 164.623 -0.250878 -19.1336 -0.261217 1.64104e-006 -1.22833e-006 -1.76901e-007 78.8444 -53.081 93.0277 163.618 75.5338 -163.5 2.48194 -15.8917 6.0658 1.64114e-006 6.50973e-007 -1.78928e-007 
-0.00556844 68.1968 -6.00039 -0.160216 15.8477 -179.886 -0.43833 16.7656 -0.557095 -0.749027 33.5347 -1.04532 -0.749023 33.5344 -1.04531 7.58438e-005 -25.5258 6.26932e-005 0.320177 -1.23485 0.00880969 -27.7058 -23.2819 -4.8177 37.6099 -10.6067 -3.81083 -100.38 -50.4793 -76.7628 18.4663 -9.23518 -6.36456 1.13103e-005 -1.19132e-006 -1.41337e-006 6.36111e-015 0 1.59028e-015 1.04699e-006 1.26371e-006 -5.18259e-006 1.13103e-005 -1.19132e-006 -1.41337e-006 -0.0128341 0.00232514 8.73763e-005 1.1176e-005 -8.88996e-006 -1.26248e-005 1.13103e-005 -1.19132e-006 -1.41337e-006 -0.0160462 0.00299789 0.000862094 9.81547e-006 9.79341e-007 -1.35561e-005 1.13103e-005 -1.19132e-006 -1.41337e-006 -0.0126087 0.00312753 0.00282979 8.76838e-006 -1.76729e-006 -8.37362e-006 1.13103e-005 -1.19132e-006 -1.41337e-006 6.36111e-015 0 1.59028e-015 1.04699e-006 1.26371e-006 -5.18259e-006 -1.46298 -17.8678 17.8082 -75.7909 -51.741 -40.9195 8.40112 -4.87296 -13.4576 40.2812 -7.37823 9.70916 -0 -4.77083e-015 -0 4.28009e-007 -3.86751e-006 2.88625e-006 -1.41082e-006 6.13877e-007 9.15583e-007 -0 -4.77083e-015 -0 0.0129248 0.00230936 -8.40042e-005 1.98251e-006 1.45611e-007 4.43949e-006 -0 -4.77083e-015 -0 0.0163649 0.0030413 -0.000874829 -7.05393e-007 -3.55396e-006 4.57752e-007 -0 -4.77083e-015 -0 0.014668 0.00370461 -0.00328471 2.4048e-006 8.00219e-007 3.56397e-006 -0 -4.77083e-015 -0 4.28009e-007 -3.86751e-006 2.88625e-006 -1.41082e-006 6.13877e-007 9.15583e-007 -82.0948 -48.2073 -94.6388 -165.356 71.2147 164.969 -0.198033 -18.9327 -0.591167 4.70986e-006 7.61052e-007 6.87417e-006 81.2509 -53.4224 95.5028 164.142 74.9533 -163.984 2.52478 -15.6568 6.31531 4.61403e-006 -6.51774e-006 -5.90995e-006 
-0.0250132 67.8131 -6.17385 -0.283635 17.2328 -179.797 -0.433952 16.3238 -0.563794 -0.740345 32.651 -1.06153 -0.740343 32.6508 -1.06153 7.26469e-005 -26.1366 6.14837e-005 0.320228 -1.56821 0.00881132 -27.7981 -22.7467 -4.56994 37.6099 -10.6067 -3.81078 -98.0205 -50.4614 -74.9973 19.0154 -8.97395 -5.20044 1.59028e-015 -9.54166e-015 -1.59028e-015 -1.76556e-031 -6.36111e-015 -1.59028e-015 6.36111e-015 -6.36111e-015 -0 1.59028e-015 -9.54166e-015 -1.59028e-015 -0.0128225 0.00232866 7.93705e-005 4.77083e-015 3.18055e-015 1.59028e-015 1.59028e-015 -9.54166e-015 -1.59028e-015 -0.0160422 0.00300019 0.000859348 -9.54166e-015 3.18055e-015 -0 1.59028e-015 -9.54166e-015 -1.59028e-015 -0.0125967 0.00312872 0.0028301 4.77083e-015 6.36111e-015 1.59028e-015 1.59028e-015 -9.54166e-015 -1.59028e-015 -1.76556e-031 -6.36111e-015 -1.59028e-015 6.36111e-015 -6.36111e-015 -0 -1.20056 -17.0586 17.5135 -75.6135 -51.9775 -40.7608 8.4007 -4.87117 -13.4579 40.4039 -6.70397 9.74021 -1.4009e-006 -4.84505e-006 -4.87281e-006 1.59028e-014 -1.90833e-014 -6.36111e-015 1.4009e-006 4.84505e-006 4.87281e-006 -1.4009e-006 -4.84505e-006 -4.87281e-006 0.0129916 0.00232906 -9.07071e-005 -3.18055e-015 0 6.36111e-015 -1.4009e-006 -4.84505e-006 -4.87281e-006 0.0163509 0.00304001 -0.000879251 1.59028e-015 -6.36111e-015 -3.18055e-015 -1.4009e-006 -4.84505e-006 -4.87281e-006 0.0145665 0.00367538 -0.00325814 6.36111e-015 -6.36111e-015 -0 -1.4009e-006 -4.84505e-006 -4.87281e-006 1.59028e-014 -1.90833e-014 -6.36111e-015 1.4009e-006 4.84505e-006 4.87281e-006 -84.2403 -48.5893 -96.7611 -165.724 70.5912 165.294 -0.141174 -18.7395 -0.919278 6.60976e-024 3.96903e-008 -9.54166e-015 83.6958 -53.7006 98.0161 164.631 74.3687 -164.434 2.56451 -15.4296 6.56344 9.49349e-007 -3.73997e-006 -5.03346e-006 
-0.0522292 67.4955 -6.40269 -0.461493 19.1667 -179.665 -0.429706 15.8815 -0.570399 -0.732219 31.7664 -1.07737 -0.732216 31.7662 -1.07736 7.14203e-005 -26.7477 6.04788e-005 0.32028 -1.90159 0.00881334 -27.8926 -22.2117 -4.32214 37.6099 -10.6067 -3.81076 -95.6604 -50.3971 -73.2323 19.5595 -8.70139 -4.03815 -1.41245e-030 -1.27222e-014 -6.36111e-015 1.59028e-015 -1.59028e-014 -7.95139e-015 9.54166e-015 -1.27222e-014 -4.77083e-015 -1.41245e-030 -1.27222e-014 -6.36111e-015 -0.0128235 0.0023219 8.77691e-005 -4.77083e-015 3.18055e-015 -0 -1.41245e-030 -1.27222e-014 -6.36111e-015 -0.016054 0.00299825 0.00086326 -4.77083e-015 6.36111e-015 1.59028e-015 -1.41245e-030 -1.27222e-014 -6.36111e-015 -0.0126166 0.0031359 0.00282989 3.18055e-015 0 1.59028e-015 -1.41245e-030 -1.27222e-014 -6.36111e-015 1.59028e-015 -1.59028e-014 -7.95139e-015 9.54166e-015 -1.27222e-014 -4.77083e-015 -0.934695 -16.2501 17.216 -75.4337 -52.2133 -40.5998 8.40031 -4.86973 -13.4581 40.5262 -6.02938 9.76982 -8.92067e-007 -2.31154e-006 -8.61999e-006 -6.7934e-007 -1.44927e-006 5.07169e-007 6.36111e-015 -3.18055e-015 -6.36111e-015 -8.92067e-007 -2.31154e-006 -8.61999e-006 0.0129296 0.00231352 -9.16412e-005 3.53113e-031 3.18055e-015 -6.36111e-015 -8.92067e-007 -2.31154e-006 -8.61999e-006 0.0163359 0.00303914 -0.000875284 -3.18055e-015 -3.18055e-015 3.18055e-015 -8.92067e-007 -2.31154e-006 -8.61999e-006 0.0145613 0.00367362 -0.00324617 3.18055e-015 -6.36111e-015 3.18055e-015 -8.92067e-007 -2.31154e-006 -8.61999e-006 -6.7934e-007 -1.44927e-006 5.07169e-007 6.36111e-015 -3.18055e-015 -6.36111e-015 -86.4114 -48.9159 -98.9077 -166.071 69.9652 165.602 -0.0787007 -18.5576 -1.24434 1.59028e-015 0 -3.18055e-015 86.1672 -53.9132 100.555 165.09 73.7795 -164.856 2.59998 -15.2126 6.8095 3.16322e-006 5.53475e-006 -6.60843e-007 
